<?xml version="1.0" encoding="utf-8"?>
<!-- Generator: Adobe Illustrator 25.1.0, SVG Export Plug-In . SVG Version: 6.00 Build 0)  -->
<svg version="1.1" id="Layer_1" xmlns="http://www.w3.org/2000/svg" xmlns:xlink="http://www.w3.org/1999/xlink" x="0px" y="0px"
	 viewBox="0 0 528 528" style="enable-background:new 0 0 528 528;" xml:space="preserve">
<style type="text/css">
	.st0{fill-rule:evenodd;clip-rule:evenodd;fill:#0192FF;}
	.st1{fill-rule:evenodd;clip-rule:evenodd;fill:#27E2A5;}
	.st2{fill-rule:evenodd;clip-rule:evenodd;fill:none;}
</style>
<g>
	<g>
		<path class="st0" d="M106.2,412.6c-4.9-4.2-12.2-6.6-21.9-7.5l0,0L71.5,404c-8.4-0.7-11.7-3.5-11.7-9.1c0-7.2,5.4-11,16.1-11
			c8.4,0,16.1,2.4,21.7,6.6l0.7,0.5l12.6-12.6l-0.7-0.7C102.7,371,90.8,367,77.1,367c-11,0-20.1,2.6-26.4,7.5
			c-6.7,5.1-10.3,12.6-10.3,21.7c0,15.2,9.6,23.8,27.8,25.4l14.7,1.1c7.5,0.7,11.3,3.7,11.3,9.5c0,5.4-3.2,11.7-19.4,11.7
			c-2.8,0-5.6-0.2-8.2-0.7c-0.5,0-1.1-0.2-1.6-0.2c-0.2,0-0.5,0-0.7-0.2c-0.5-0.2-1.1-0.2-1.6-0.5c-1.1-0.2-2.1-0.7-3.2-1.1
			c-1.4-0.5-2.6-1.1-4-1.9c-0.2-0.2-0.5-0.2-0.7-0.5c-1.6-1.1-4.9-4-4.9-4l-0.7-0.5l-13.8,13l0.7,0.7c8.9,9.1,21,13.6,37.1,13.6
			c12.6,0,22.7-2.6,29.7-7.5c7.5-5.1,11.2-12.8,11.2-22.7C113.9,423,111.4,416.8,106.2,412.6z"/>
		<path class="st0" d="M382.7,379.2v-11.5h-19.8V460H383v-43c0-9.1,3-16.8,8.6-22.2c5.1-5.1,12.3-8,20.1-8h0.9v-18.3h-0.9
			C400.9,368.4,390.6,372.3,382.7,379.2z"/>
		<path class="st0" d="M234,428c0,8-7,14.1-16.3,14.1s-16.6-6.1-16.6-14.1v-60.3h-19.9v59.6c0,9.3,3.7,18.2,10.5,24.3
			c6.7,6.3,15.9,9.6,25.9,9.6s19.4-3.5,26.2-9.6c6.7-6.3,10.5-15,10.5-24.3v-59.6H234L234,428L234,428z"/>
		<path class="st0" d="M306.5,366.5c-15.7,0-25.4,4-33.9,13.8l-0.5,0.7l13.3,12.3l0.7-0.7c1.6-1.9,3-3.2,4.7-4.5
			c0.9-0.7,1.9-1.1,2.8-1.6c0.7-0.5,1.6-0.7,2.4-0.9c2.8-0.9,6.1-1.4,10.5-1.4c7,0,11.5,1.1,14.2,3.7c2.6,2.6,4,6.3,4,12.3v3.5
			h-22.9c-11,0-20.1,2.8-26.4,8.2c-5.9,4.9-8.9,12-8.9,20.1c0,8.9,3.2,16.3,9.6,21.5c5.9,4.9,13.6,7.5,21.9,7.5
			c3.7,0,7-0.2,10.1-0.7c0.7,0,1.4-0.2,1.9-0.5c3.2-0.7,6.1-1.9,8.6-3.2c0.5-0.2,1.1-0.7,1.6-0.9c0.9-0.7,1.9-1.4,2.8-2.1
			c1.1-0.9,2.1-1.9,3.2-3c0.7,1.4,1.4,2.8,2.8,4c3.2,3.5,8.4,5.1,14.7,5.1h0.9v-61.8l0,0C343.9,376.8,331.7,366.5,306.5,366.5z
			 M324.2,420.3v2.8c0,7.7-4,12.3-7,15c-4.2,3.2-9.6,5.1-15.2,5.1c-4.9,0-8.9-0.9-11.7-2.6c-3.2-1.9-4.9-4.9-4.9-8.6
			s1.6-6.7,4.5-8.6c3-2.1,8-3,14.2-3L324.2,420.3L324.2,420.3z M325.4,450L325.4,450L325.4,450L325.4,450L325.4,450z"/>
		<path class="st0" d="M443.6,431.9v-45.6H463v-18.2h-18.2c-0.7,0-0.9-0.2-0.9-0.2c-0.2-0.2-0.2-1.4-0.2-2.6c0-0.2,0-0.5,0-0.7
			c0-2.1,0-3,0-3c0-8-2.1-13.8-6.3-17.6c-5.6-4.9-12.6-4.2-12.8-4.2h-0.8v95.1c0,12.8,8,25.9,25.9,25.9h15.4v-19.5h-12.2
			C446.7,441.5,443.6,438.2,443.6,431.9z"/>
		<path class="st0" d="M144.3,431.8v-45.6h19.4V368h-18.2c-0.7,0-0.9-0.2-0.9-0.2c-0.2-0.2-0.2-1.4-0.2-2.6c0-0.2,0-0.5,0-0.7
			c0-2.1,0-3,0-3c0-8-2.1-13.8-6.3-17.6c-5.6-4.9-12.6-4.2-12.8-4.2h-0.7v95.1c0,12.8,8,25.9,25.9,25.9h15.4V441h-12.2
			C147.3,441.1,144.3,437.8,144.3,431.8z"/>
		<circle class="st1" cx="485.2" cy="451.3" r="11.7"/>
	</g>
	<path class="st0" d="M240.4,230.6l-30.9-18.2c0,0-3,12.2,5.6,18.4l24,15c0.5,0.2,0.9,0.5,1.6,0.5s1.4-0.2,1.9-0.9
		c0.5-0.5,0.7-1.1,0.7-2.1v-7.5C243.1,233.8,242,231.4,240.4,230.6z"/>
	<path class="st0" d="M243.1,209.3c0-1.9-1.4-4.2-3-5.1l-38.5-22.9c0,0-3.2,12.2,5.4,18.2l32.3,19.7c0.5,0.2,0.9,0.5,1.6,0.5
		s1.4-0.2,1.9-0.9c0.5-0.5,0.7-1.1,0.7-2.1L243.1,209.3L243.1,209.3L243.1,209.3z"/>
	<path class="st0" d="M336.2,116.6c-1.9,0-3.7,0.5-5.4,1.4l0,0l-76.4,47.2l0,0c-3.5,2.1-6.6,0.9-8,0.2l-0.5-0.2l0,0l0,0l-60.9-36.9
		l0,0l0,0l-0.2-0.2c-0.9-0.5-3-2.4,0.2-4.5l61.9-37.4c0,0,3.5-2.4,8.2,0.5l0,0l24.5,14.2c0.5,0.2,0.9,0.5,1.1,0.7l0.7,0.5l0,0
		c0.5,0.2,0.7,0.5,1.1,0.5c3.2,1.6,8,3.7,13.3,4.5c6.7,0.9,12.3-0.7,16.6-4.5l2.4-2.1l-28.5-16.3l-17.8-10.3l-1.9-0.9l-11.4-6.7
		c-2.4-1.4-6.1-1.6-8.9-0.7c-0.7,0.2-1.1,0.5-1.6,0.7l-44.9,27.2l0,0l-38.1,22.9l0,0c-3.5,2.4-5.6,5.6-5.6,9.1
		c0,3.2,1.6,6.3,4.9,8.6l0,0l84.1,50.9c3,1.9,7.7,1.9,10.7,0l68.9-42.1l0,0l0,0l0.5-0.2c0.9-0.5,2.8-1.1,2.8,2.1v72.9
		c0,4-1.1,5.6-2.1,6.6l-1.1,0.7l0,0l0,0l-70.3,42.5l0,0c-3.7,2.4-7,0.9-8,0.2l-0.5-0.2l0,0l0,0l-70.1-42.2l0,0
		c-2.6-1.6-3.2-3.7-3.5-5.4V218l0,0l0,0v-24c0-0.7,0.2-6.3-1.1-12.3c-2.1-9.1-6.7-14.7-13.6-16.8l-3-0.9v33.9v3.2l0,0v27.8v0.2
		c0.5,3.2,2.6,6.6,5.1,8l85.1,51.2c1.4,0.9,3.2,1.4,5.4,1.4c1.9,0,4-0.5,5.4-1.4l85.1-51.4c3-1.9,5.1-5.9,5.1-9.3V127
		c0-2.6-0.9-4.9-2.6-6.7C341.5,117.7,338.9,116.6,336.2,116.6z"/>
</g>
<rect class="st2" width="528" height="528"/>
</svg>
